<?xml version="1.0" encoding="UTF-8"?>
<svg width="512" height="512" viewBox="0 0 512 512" fill="none" xmlns="http://www.w3.org/2000/svg">
  <rect width="512" height="512" rx="100" fill="url(#paint0_linear)" />
  <path d="M169.5 326.5V185.5H226C240.167 185.5 252.167 188.167 262 193.5C271.833 198.833 279.333 206.333 284.5 216C289.667 225.667 292.25 236.833 292.25 249.5C292.25 262.167 289.667 273.333 284.5 283C279.333 292.667 271.833 300.167 262 305.5C252.167 310.833 240.167 313.5 226 313.5H190V326.5H169.5ZM190 294.5H225C235.667 294.5 244.5 292.667 251.5 289C258.5 285.333 263.667 280.167 267 273.5C270.333 266.833 272 258.833 272 249.5C272 240.167 270.333 232.167 267 225.5C263.667 218.833 258.5 213.667 251.5 210C244.5 206.333 235.667 204.5 225 204.5H190V294.5Z" fill="white" />
  <path d="M342.5 326.5V185.5H363V326.5H342.5Z" fill="white" />
  <defs>
    <linearGradient id="paint0_linear" x1="0" y1="0" x2="512" y2="512" gradientUnits="userSpaceOnUse">
      <stop stop-color="#0EA5E9" />
      <stop offset="1" stop-color="#8B5CF6" />
    </linearGradient>
  </defs>
</svg>
