<?xml version="1.0" encoding="UTF-8"?>
<svg width="32px" height="32px" viewBox="0 0 32 32" version="1.1" xmlns="http://www.w3.org/2000/svg" xmlns:xlink="http://www.w3.org/1999/xlink">
    <title>Vite Logo</title>
    <defs>
        <linearGradient x1="50%" y1="0%" x2="50%" y2="100%" id="linearGradient-1">
            <stop stop-color="#41D1FF" offset="0%"></stop>
            <stop stop-color="#BD34FE" offset="100%"></stop>
        </linearGradient>
    </defs>
    <g id="Page-1" stroke="none" stroke-width="1" fill="none" fill-rule="evenodd">
        <g id="vite-logo" fill-rule="nonzero">
            <path d="M31.8,5.6 C31.2,4.3 29.9,3.4 28.5,3.4 L3.5,3.4 C2.1,3.4 0.8,4.3 0.2,5.6 C-0.4,6.9 -0.1,8.4 0.9,9.4 L13.4,21.9 C14.3,22.8 15.6,23.3 16.9,23.3 C18.2,23.3 19.5,22.8 20.4,21.9 L32.9,9.4 C34,8.4 34.3,6.9 31.8,5.6 Z" id="Path" fill="url(#linearGradient-1)"></path>
            <path d="M17.3,25.7 C16.9,26.1 16.2,26.1 15.8,25.7 L5.4,15.3 C4.9,14.8 4.9,14 5.4,13.5 C5.9,13 6.7,13 7.2,13.5 L16,22.3 L24.8,13.5 C25.3,13 26.1,13 26.6,13.5 C27.1,14 27.1,14.8 26.6,15.3 L17.3,25.7 Z" id="Path" fill="#FFD62E"></path>
            <circle id="Oval" fill="#FFFFFF" cx="7.5" cy="8.5" r="1.5"></circle>
            <circle id="Oval" fill="#FFFFFF" cx="24.5" cy="8.5" r="1.5"></circle>
        </g>
    </g>
</svg>
